<svg width="332" height="332" viewBox="0 0 332 332" fill="none" xmlns="http://www.w3.org/2000/svg">
<circle opacity="0.75" cx="166" cy="166" r="166" fill="white"/>
<circle cx="166" cy="166" r="145" fill="url(#paint0_linear_19_97666)"/>
<path d="M253.935 124.42C252.368 128.571 250.703 130.09 247.535 127.334L237.956 117.127C234.74 113.704 229.473 111.349 226.566 112.949L223.268 114.762L237.181 100.595C239.377 97.9847 243.353 98.0987 246.889 100.595C247.622 101.11 248.338 101.729 249.016 102.45L253.344 106.655C254.537 107.963 256.707 111.761 256.164 115.559C255.937 117.171 255.497 120.28 253.935 124.431V124.42Z" fill="url(#paint1_radial_19_97666)"/>
<path d="M253.344 106.644L216.07 69.8079C205.266 58.663 189.265 65.6028 176.231 73.5735C159.346 84.4796 142.516 96.0802 159.189 113.275L176.817 131.446C181.698 136.482 187.947 138.088 192.15 135.391C201.046 129.672 217.133 118.636 229.082 111.186C235.157 107.399 239.778 104.094 244.503 103.595C247.15 103.313 250.008 103.21 253.338 106.65L253.344 106.644Z" fill="white"/>
<path d="M253.344 106.644L216.07 69.8079C205.266 58.663 189.265 65.6028 176.231 73.5735C159.346 84.4796 142.516 96.0802 159.189 113.275L176.817 131.446C181.698 136.482 187.947 138.088 192.15 135.391C201.046 129.672 217.133 118.636 229.082 111.186C235.157 107.399 239.778 104.094 244.503 103.595C247.15 103.313 250.008 103.21 253.338 106.65L253.344 106.644Z" fill="url(#paint2_linear_19_97666)" fill-opacity="0.6"/>
<path d="M161.749 170.801L115.277 213.362C107.428 220.817 95.8479 221.967 86.8441 216.894C84.9729 215.841 83.2155 214.517 81.6263 212.928L71.0604 202.358C65.0994 196.395 62.7996 187.909 64.595 179.987C65.0831 177.811 65.8805 175.684 66.9978 173.66L67.7029 172.385C67.7029 172.385 67.7192 172.363 67.7192 172.347L76.6416 156.161C82.3693 147.23 89.1819 140.519 96.9544 146.411L121.964 171.43C129.531 178.999 141.729 181.756 151.118 176.617L161.749 170.801Z" fill="url(#paint3_radial_19_97666)"/>
<path d="M71.0605 202.358L129.086 260.399C145.96 277.279 180.473 262.955 209.524 247.398C247.41 226.27 285.46 203.991 259.424 177.947L232.977 151.511C225.356 143.888 213.63 142.239 204.208 147.475C184.259 158.56 148.341 176.775 121.639 191.278C108.068 198.647 96.4936 205.06 86.9311 206.693C81.5668 207.61 76.2676 207.567 71.066 202.363L71.0605 202.358Z" fill="white"/>
<path d="M71.0605 202.358L129.086 260.399C145.96 277.279 180.473 262.955 209.524 247.398C247.41 226.27 285.46 203.991 259.424 177.947L232.977 151.511C225.356 143.888 213.63 142.239 204.208 147.475C184.259 158.56 148.341 176.775 121.639 191.278C108.068 198.647 96.4936 205.06 86.9311 206.693C81.5668 207.61 76.2676 207.567 71.066 202.363L71.0605 202.358Z" fill="url(#paint4_linear_19_97666)" fill-opacity="0.6"/>
<defs>
<linearGradient id="paint0_linear_19_97666" x1="166" y1="21" x2="166" y2="311" gradientUnits="userSpaceOnUse">
<stop stop-color="#224F87"/>
<stop offset="1" stop-color="#0055C6"/>
</linearGradient>
<radialGradient id="paint1_radial_19_97666" cx="0" cy="0" r="1" gradientUnits="userSpaceOnUse" gradientTransform="translate(-25.4626 72.7096) rotate(-171.917) scale(15.3832 16.6926)">
<stop stop-color="#66DFFF"/>
<stop offset="1" stop-color="#0296E6"/>
</radialGradient>
<linearGradient id="paint2_linear_19_97666" x1="-8.66552" y1="189.904" x2="-14.859" y2="196.016" gradientUnits="userSpaceOnUse">
<stop stop-color="#CDFAFF"/>
<stop offset="1" stop-color="#CDFAFF" stop-opacity="0"/>
</linearGradient>
<radialGradient id="paint3_radial_19_97666" cx="0" cy="0" r="1" gradientUnits="userSpaceOnUse" gradientTransform="translate(112.874 182.087) scale(43.7281 43.7438)">
<stop stop-color="#66DFFF"/>
<stop offset="1" stop-color="#0296E6"/>
</radialGradient>
<linearGradient id="paint4_linear_19_97666" x1="249.529" y1="158.153" x2="172.417" y2="200.322" gradientUnits="userSpaceOnUse">
<stop stop-color="#0059C5"/>
<stop offset="1" stop-color="#0059C5" stop-opacity="0"/>
</linearGradient>
</defs>
</svg>
